PathFileType	4	(X/Y/Z)	C:/Users/opensim2020/Desktop/walking_exp_matlab/subject01_walking08_straight_02.trc	
DataRate	CameraRate	NumFrames	NumMarkers	Units	OrigDataRate	OrigDataStartFrame	OrigNumFrames	
100.00	100.00	4	43	mm	100.00	2040	311	
Frame#	Time	LFHD			RFHD			LBHD			RBHD			C7			T10			CLAV			STRN			RBAK			LSHO			LUPA			LELB			LFRM			LWRA			LWRB			LFIN			RSHO			RUPA			RELB			RFRM			RWRA			RWRB			RFIN			LASI			RASI			LPSI			RPSI			LTHI			LKNE			LTIB			LANK			LHEE			LTOE			RTHI			RKNE			RTIB			RANK			RHEE			RTOE			*39			*40			*41			*42			
		X1	Y1	Z1	X2	Y2	Z2	X3	Y3	Z3	X4	Y4	Z4	X5	Y5	Z5	X6	Y6	Z6	X7	Y7	Z7	X8	Y8	Z8	X9	Y9	Z9	X10	Y10	Z10	X11	Y11	Z11	X12	Y12	Z12	X13	Y13	Z13	X14	Y14	Z14	X15	Y15	Z15	X16	Y16	Z16	X17	Y17	Z17	X18	Y18	Z18	X19	Y19	Z19	X20	Y20	Z20	X21	Y21	Z21	X22	Y22	Z22	X23	Y23	Z23	X24	Y24	Z24	X25	Y25	Z25	X26	Y26	Z26	X27	Y27	Z27	X28	Y28	Z28	X29	Y29	Z29	X30	Y30	Z30	X31	Y31	Z31	X32	Y32	Z32	X33	Y33	Z33	X34	Y34	Z34	X35	Y35	Z35	X36	Y36	Z36	X37	Y37	Z37	X38	Y38	Z38	X39	Y39	Z39	X40	Y40	Z40	X41	Y41	Z41	X42	Y42	Z42	X43	Y43	Z43	

234	2.330	1493.73230	-283.29321	1675.43530	1380.85303	-300.34818	1682.07520	1482.20667	-171.26633	1621.04712	1361.73157	-185.98830	1626.79468	1441.77051	-148.16472	1431.68530	1425.93274	-123.62676	1136.13928	1437.37109	-292.81500	1366.73132	1443.45862	-341.80896	1213.94495	1364.20178	-100.00702	1233.27319	1600.42810	-237.73009	1395.72607	1684.08765	-224.85988	1209.89465	1683.30005	-226.15428	1056.11670	1706.85974	-288.88226	960.03546	1687.71179	-395.46106	870.44647	1711.17957	-342.79245	850.75885	1720.61621	-407.47638	796.58130	1286.66443	-226.92540	1390.01550	1188.31860	-169.98987	1187.37292	1188.59351	-170.64166	1062.47571	1159.64941	-198.12491	944.97491	1179.03845	-279.02875	828.73840	1141.00903	-234.64655	829.07947	1144.72009	-271.48969	750.97388	1534.78552	-296.36978	930.05591	1318.39478	-310.51804	935.34094	1470.38354	-112.97031	941.40845	1325.41650	-125.02357	947.14978	1601.10693	-278.40311	598.36279	1597.04297	-267.79654	464.79382	1602.90466	-119.16162	356.38638	1549.45667	48.71008	216.60242	1490.23743	87.30685	232.93623	1551.02075	9.37974	68.22733	1268.17432	-289.58441	601.53406	1300.95862	-319.28070	447.30981	1298.97498	-277.47113	275.32825	1349.32324	-259.66379	71.60069	1397.53931	-208.96017	34.01276	1357.47583	-401.08569	36.06434	1403.00500	-284.00662	1714.02014	-3102.03027	1973.01086	1023.40125	-3140.68335	2012.57056	1022.01373			 
235	2.340	1492.93091	-290.22275	1675.92371	1380.08032	-307.32846	1682.66235	1481.39648	-178.40111	1621.11731	1360.95862	-193.09482	1626.94812	1441.54016	-155.19977	1432.42615	1424.92908	-130.62479	1136.78223	1436.69617	-300.31052	1366.90063	1442.75391	-348.93109	1213.96851	1363.26306	-107.20859	1234.06287	1599.73157	-245.24672	1396.13708	1683.03552	-230.76215	1210.21265	1681.47205	-230.63173	1056.41199	1705.25183	-291.68085	959.34717	1686.58569	-396.89407	868.15430	1709.61548	-343.84982	849.24628	1719.45923	-407.64700	794.07269	1286.11377	-234.27794	1390.47461	1187.09802	-179.04120	1187.73865	1187.15869	-180.05487	1062.83044	1158.22339	-208.35280	945.60681	1177.88403	-289.69986	829.80463	1139.51245	-245.78658	829.95795	1143.19360	-282.81470	752.12909	1533.75098	-303.18579	930.52789	1317.10596	-316.92014	935.38214	1469.94165	-119.86239	941.94745	1324.98206	-131.45958	947.46234	1600.99622	-290.95047	599.92737	1596.95728	-282.67517	466.40704	1602.23413	-134.08353	358.31912	1548.75830	34.21763	219.41183	1489.11633	73.01398	234.49248	1553.66064	-6.69752	71.77383	1267.74036	-294.17920	601.23260	1300.86096	-322.77505	446.81845	1299.00122	-279.86832	274.84106	1349.35474	-259.77182	71.63559	1397.75537	-208.91479	34.19148	1357.53882	-401.11707	36.03992	1402.20227	-290.71155	1714.53186	-3101.88379	1973.22180	1023.40356	-3140.62427	2012.53369	1022.17578			 
236	2.350	1492.23303	-297.16565	1676.43909	1379.34558	-314.19952	1683.17188	1480.68518	-185.51921	1621.25549	1360.21436	-200.22966	1627.13977	1440.88220	-162.67110	1432.97754	1424.08801	-137.54729	1137.42505	1436.09863	-307.77975	1367.20276	1442.11023	-355.96149	1214.08508	1362.46667	-114.31081	1234.80591	1599.08887	-252.60999	1396.60901	1682.10803	-236.69531	1210.52783	1679.69543	-235.07788	1056.76892	1703.69946	-294.37231	958.72552	1685.49023	-398.27649	865.92706	1708.16711	-344.71790	847.79034	1718.24463	-407.60175	791.59875	1285.59546	-241.64963	1391.07788	1186.06433	-188.04124	1188.17834	1185.82190	-189.31163	1063.30530	1156.87793	-218.53709	946.28455	1176.72107	-300.41537	830.91315	1137.83972	-256.74139	831.14423	1141.58472	-294.22842	753.41852	1532.56226	-309.67883	931.08417	1315.86658	-323.27023	935.50861	1469.61047	-126.74533	942.65100	1324.61487	-137.81599	947.73944	1600.93811	-303.29990	601.64655	1596.89856	-297.27423	468.18845	1601.34180	-148.74370	360.20618	1548.29834	19.08552	221.10370	1488.15735	58.39014	234.97070	1555.76172	-24.09411	74.59159	1267.44519	-298.79446	600.88953	1301.05603	-325.51923	446.17764	1298.98328	-282.23920	274.63068	1349.40723	-259.95532	71.56904	1397.65637	-208.96873	34.14927	1357.59680	-401.13184	36.06811	1401.46863	-297.55124	1715.03674	-3101.73779	1973.07556	1023.39105	-3140.82983	2012.43701	1021.92767			 
237	2.360	1491.54041	-304.16528	1676.89026	1378.65210	-321.26929	1683.67139	1480.00476	-192.63878	1621.44543	1359.52759	-207.44516	1627.30371	1440.25500	-170.07195	1433.48621	1423.30273	-144.44061	1138.08386	1435.66187	-315.22549	1367.65637	1441.46082	-362.97772	1214.18018	1361.69324	-121.45068	1235.53394	1598.53088	-259.93134	1397.09729	1681.29053	-242.63924	1210.89539	1678.05786	-239.42998	1057.17908	1702.16870	-296.98074	958.16071	1684.30469	-399.54236	863.70282	1706.54773	-345.52756	846.39075	1717.05847	-407.37076	789.24475	1285.11621	-249.25041	1391.51135	1185.00110	-196.76311	1188.54919	1184.55261	-198.52684	1063.71753	1155.58936	-228.64117	947.02618	1175.60425	-311.16663	832.13110	1136.45129	-268.04669	831.98273	1140.04419	-305.79684	754.75055	1531.29285	-316.04080	931.60822	1314.61060	-329.56509	935.59979	1469.32202	-133.59125	943.39966	1324.22290	-144.13040	948.10962	1600.78821	-315.29272	603.47784	1596.81677	-311.54306	470.13577	1600.44788	-163.39409	361.95172	1547.86475	3.44757	221.85094	1487.55872	43.58150	234.39607	1557.79919	-42.97905	77.53390	1267.14221	-303.41290	600.58270	1300.81030	-328.93741	445.77579	1299.04407	-284.54507	274.48087	1349.49658	-260.15616	71.53606	1397.36768	-208.77907	33.86532	1357.66357	-401.18796	36.05373	1400.80334	-304.48245	1715.50110	-3101.98999	1973.08765	1023.51459	-3140.66846	2012.50696	1022.05475			 
